<svg width="34" height="34" viewBox="0 0 34 34" fill="none" xmlns="http://www.w3.org/2000/svg">
<path d="M29.6172 2.65625H26.5625V1.0625C26.5625 0.475734 26.0868 0 25.5 0C24.9132 0 24.4375 0.475734 24.4375 1.0625V2.65625H9.5625V1.0625C9.5625 0.475734 9.08683 0 8.5 0C7.91317 0 7.4375 0.475734 7.4375 1.0625V2.65625H4.38281C1.96609 2.65625 0 4.62234 0 7.03906V29.6172C0 32.0339 1.96609 34 4.38281 34H29.6172C32.0339 34 34 32.0339 34 29.6172V7.03906C34 4.62234 32.0339 2.65625 29.6172 2.65625ZM4.38281 4.78125H7.4375V5.84375C7.4375 6.43052 7.91317 6.90625 8.5 6.90625C9.08683 6.90625 9.5625 6.43052 9.5625 5.84375V4.78125H24.4375V5.84375C24.4375 6.43052 24.9132 6.90625 25.5 6.90625C26.0868 6.90625 26.5625 6.43052 26.5625 5.84375V4.78125H29.6172C30.8622 4.78125 31.875 5.79408 31.875 7.03906V9.5625H2.125V7.03906C2.125 5.79408 3.13783 4.78125 4.38281 4.78125ZM29.6172 31.875H4.38281C3.13783 31.875 2.125 30.8622 2.125 29.6172V11.6875H31.875V29.6172C31.875 30.8622 30.8622 31.875 29.6172 31.875Z" fill="#F85EFB"/>
</svg>
