<svg width="34" height="34" viewBox="0 0 34 34" fill="none" xmlns="http://www.w3.org/2000/svg">
<g clip-path="url(#clip0)">
<path d="M30.4224 8.94617C29.7182 9.28684 29.4235 10.1342 29.7642 10.8381C30.6949 12.7607 31.1667 14.8331 31.1667 17C31.1667 24.8114 24.8114 31.1667 17 31.1667C9.18862 31.1667 2.83333 24.8114 2.83333 17C2.83333 9.18862 9.18862 2.83333 17 2.83333C20.237 2.83333 23.2778 3.8903 25.7947 5.88975C26.4051 6.37708 27.2978 6.27504 27.7851 5.66252C28.2725 5.05033 28.1704 4.15869 27.5576 3.67206C24.5779 1.30391 20.8284 0 17 0C7.62669 0 0 7.62669 0 17C0 26.3733 7.62669 34 17 34C26.3733 34 34 26.3733 34 17C34 14.4025 33.4328 11.9134 32.3142 9.60435C31.9743 8.89878 31.1241 8.6048 30.4224 8.94617Z" fill="#F85EFB"/>
<path d="M17 5.66675C16.218 5.66675 15.5833 6.30141 15.5833 7.08341V17.0001C15.5833 17.7821 16.218 18.4167 17 18.4167H24.0833C24.8653 18.4167 25.5 17.7821 25.5 17.0001C25.5 16.2181 24.8653 15.5834 24.0833 15.5834H18.4167V7.08341C18.4167 6.30141 17.782 5.66675 17 5.66675Z" fill="#F85EFB"/>
</g>
<defs>
<clipPath id="clip0">
<rect width="34" height="34" fill="white"/>
</clipPath>
</defs>
</svg>
