<svg width="230" height="230" viewBox="0 0 230 230" fill="none" xmlns="http://www.w3.org/2000/svg">
<g clip-path="url(#clip0)">
<path d="M226.169 1.0036e-07C226.168 1.0036e-07 226.167 1.0036e-07 226.167 1.0036e-07H3.83333C1.71685 -0.000479066 0.000479167 1.71494 0 3.83142C0 3.8319 0 3.83285 0 3.83333V80.5H7.66667V7.66667H222.333V92H88.1667V99.6667H226.167C228.283 99.6671 230 97.9517 230 95.8352C230 95.8348 230 95.8338 230 95.8333V3.83333C230 1.71685 228.285 0.000479267 226.169 1.0036e-07Z" fill="#FEFEFF"/>
<path d="M203.167 19.1667H126.5V26.8334H203.167V19.1667Z" fill="#FEFEFF"/>
<path d="M214.667 42.1667H138V49.8334H214.667V42.1667Z" fill="#FEFEFF"/>
<path d="M199.333 65.1667H122.667V72.8334H199.333V65.1667Z" fill="#FEFEFF"/>
<path d="M122.361 33.05C119.737 26.7417 112.495 23.7556 106.188 26.38C106.08 26.425 105.972 26.471 105.866 26.5189L74.7835 42.6429C76.0093 40.1023 76.6528 37.3203 76.6667 34.4999C76.6667 23.9146 68.0853 15.3333 57.5 15.3333C46.9147 15.3333 38.3333 23.9146 38.3333 34.4999C38.3477 38.6605 39.7291 42.7013 42.2649 45.9999H42.1053C31.2244 46.0728 21.5112 52.8372 17.6698 63.018L7.43667 98.289C5.00058 104.617 8.15542 111.722 14.4838 114.158C17.3693 115.269 20.5677 115.25 23.4404 114.105C26.7409 112.776 29.3092 110.09 30.4913 106.734L34.5 93.9765V149.456C31.2014 146.921 27.1606 145.539 23 145.524C12.4305 145.508 3.84915 154.064 3.83333 164.634C3.82567 169.81 5.91483 174.769 9.62502 178.379C3.73702 181.387 0.0230001 187.432 1.0036e-07 194.044V226.167C-0.000479066 228.283 1.71494 229.999 3.83142 230C3.8319 230 3.83285 230 3.83333 230H42.1667C44.2831 230 45.9995 228.285 46 226.169C46 226.168 46 226.167 46 226.167V194.044C45.9813 188.61 43.4571 183.49 39.1594 180.167H68.1744C63.8763 183.49 61.352 188.61 61.3338 194.044V226.167C61.3333 228.283 63.0487 229.999 65.1652 230C65.1657 230 65.1667 230 65.1671 230H103.5C105.617 230 107.333 228.285 107.334 226.169C107.334 226.168 107.334 226.167 107.334 226.167V194.044C107.311 187.432 103.597 181.387 97.7088 178.379C105.277 170.992 105.424 158.867 98.037 151.299C93.4878 146.638 86.8815 144.609 80.5005 145.912V67.4949L115.691 49.2228C121.999 46.5989 124.985 39.3577 122.361 33.05ZM57.5 22.9999C63.8514 22.9999 69 28.1486 69 34.4999C69 40.8513 63.8514 45.9999 57.5 45.9999C51.1515 45.9932 46.0067 40.8484 46 34.4999C46 28.1486 51.1486 22.9999 57.5 22.9999ZM23 153.191C29.3514 153.191 34.5 158.34 34.5 164.691C34.5 171.042 29.3514 176.191 23 176.191C16.6486 176.191 11.5 171.042 11.5 164.691C11.5067 158.342 16.6515 153.198 23 153.191ZM38.3333 222.333H7.66667V194.044C7.67433 188.499 12.1675 184.007 17.7124 184H28.2876C33.832 184.007 38.3257 188.499 38.3333 194.044V222.333ZM99.6667 194.044V222.333H69V194.044C69.0077 188.499 73.5008 184.007 79.0457 184H89.6209C95.1659 184.007 99.659 188.499 99.6667 194.044ZM84.3333 153.191C90.6818 153.198 95.8266 158.342 95.8333 164.691C95.8333 171.042 90.6847 176.191 84.3333 176.191C77.982 176.191 72.8333 171.042 72.8333 164.691C72.8333 158.34 77.982 153.191 84.3333 153.191ZM115.346 39.4449C114.833 40.7617 113.78 41.7952 112.453 42.2825L74.9019 61.7635C73.6311 62.4229 72.8333 63.7353 72.8333 65.1666V149.456C65.653 154.765 63.1657 164.374 66.8687 172.5H61.3333V107.333H53.6667V172.5H40.4647C41.5552 170.09 42.1298 167.478 42.1523 164.833H42.1667V68.9999C42.1662 66.8825 40.4493 65.1666 38.3324 65.1671C36.6586 65.1675 35.1785 66.2538 34.6763 67.8509L23.23 104.275C22.3627 106.667 19.7201 107.903 17.3281 107.035C17.1604 106.974 16.996 106.904 16.836 106.824C14.6246 105.681 13.686 103.013 14.6951 100.737L24.9277 65.4661C27.6872 58.3792 34.4995 53.6996 42.1049 53.6666H69.2473C69.8615 53.6675 70.4672 53.5195 71.0125 53.2363L109.112 33.4597C111.398 32.5061 114.032 33.4817 115.145 35.6945C115.735 36.8608 115.808 38.2216 115.346 39.4449Z" fill="#FEFEFF"/>
<path d="M159.042 178.379C166.624 170.992 166.782 158.857 159.395 151.275C152.008 143.694 139.873 143.535 132.291 150.922C124.709 158.309 124.551 170.444 131.938 178.026C132.055 178.145 132.172 178.263 132.292 178.379C126.404 181.387 122.69 187.432 122.667 194.044V226.167C122.666 228.283 124.382 230 126.498 230C126.499 230 126.5 230 126.5 230H164.833C166.95 230.001 168.666 228.285 168.667 226.169C168.667 226.168 168.667 226.167 168.667 226.167V194.044C168.644 187.432 164.93 181.387 159.042 178.379ZM145.667 153.191C152.018 153.191 157.167 158.34 157.167 164.691C157.167 171.042 152.018 176.191 145.667 176.191C139.315 176.191 134.167 171.042 134.167 164.691C134.173 158.343 139.318 153.198 145.667 153.191ZM161 222.333H130.333V194.044C130.341 188.499 134.834 184.007 140.379 184H150.954C156.499 184.007 160.992 188.499 161 194.044V222.333Z" fill="#FEFEFF"/>
<path d="M220.375 178.379C227.957 170.992 228.115 158.857 220.728 151.275C213.341 143.694 201.206 143.535 193.625 150.922C186.043 158.309 185.885 170.444 193.271 178.026C193.388 178.145 193.506 178.263 193.625 178.379C187.738 181.387 184.023 187.432 184 194.044V226.167C184 228.283 185.715 230 187.831 230C187.832 230 187.833 230 187.833 230H226.167C228.283 230.001 230 228.285 230 226.169C230 226.168 230 226.167 230 226.167V194.044C229.977 187.432 226.263 181.387 220.375 178.379ZM207 153.191C213.351 153.191 218.5 158.34 218.5 164.691C218.5 171.042 213.351 176.191 207 176.191C200.649 176.191 195.5 171.042 195.5 164.691C195.507 158.343 200.652 153.198 207 153.191ZM222.333 222.333H191.667V194.044C191.674 188.499 196.167 184.007 201.712 184H212.288C217.832 184.007 222.326 188.499 222.333 194.044V222.333Z" fill="#FEFEFF"/>
</g>
<defs>
<clipPath id="clip0">
<rect width="230" height="230" fill="white"/>
</clipPath>
</defs>
</svg>
