<svg width="100" height="100" viewBox="0 0 100 100" fill="none" xmlns="http://www.w3.org/2000/svg">
<path d="M89.0625 9.375H79.6875V7.8125C79.6875 6.5693 79.1936 5.37701 78.3146 4.49794C77.4355 3.61886 76.2432 3.125 75 3.125C73.7568 3.125 72.5645 3.61886 71.6854 4.49794C70.8064 5.37701 70.3125 6.5693 70.3125 7.8125V9.375H54.6875V7.8125C54.6875 6.5693 54.1936 5.37701 53.3146 4.49794C52.4355 3.61886 51.2432 3.125 50 3.125C48.7568 3.125 47.5645 3.61886 46.6854 4.49794C45.8064 5.37701 45.3125 6.5693 45.3125 7.8125V9.375H29.6875V7.8125C29.6875 6.5693 29.1936 5.37701 28.3146 4.49794C27.4355 3.61886 26.2432 3.125 25 3.125C23.7568 3.125 22.5645 3.61886 21.6854 4.49794C20.8064 5.37701 20.3125 6.5693 20.3125 7.8125V9.375H10.9375C8.86621 9.37733 6.88042 10.2012 5.4158 11.6658C3.95117 13.1304 3.12733 15.1162 3.125 17.1875V89.0625C3.12733 91.1338 3.95117 93.1196 5.4158 94.5842C6.88042 96.0488 8.86621 96.8727 10.9375 96.875H89.0625C91.1338 96.8727 93.1196 96.0488 94.5842 94.5842C96.0488 93.1196 96.8727 91.1338 96.875 89.0625V17.1875C96.8727 15.1162 96.0488 13.1304 94.5842 11.6658C93.1196 10.2012 91.1338 9.37733 89.0625 9.375ZM73.4375 7.8125C73.4375 7.3981 73.6021 7.00067 73.8951 6.70765C74.1882 6.41462 74.5856 6.25 75 6.25C75.4144 6.25 75.8118 6.41462 76.1049 6.70765C76.3979 7.00067 76.5625 7.3981 76.5625 7.8125V17.1875C76.5625 17.6019 76.3979 17.9993 76.1049 18.2924C75.8118 18.5854 75.4144 18.75 75 18.75C74.5856 18.75 74.1882 18.5854 73.8951 18.2924C73.6021 17.9993 73.4375 17.6019 73.4375 17.1875V7.8125ZM48.4375 7.8125C48.4375 7.3981 48.6021 7.00067 48.8951 6.70765C49.1882 6.41462 49.5856 6.25 50 6.25C50.4144 6.25 50.8118 6.41462 51.1049 6.70765C51.3979 7.00067 51.5625 7.3981 51.5625 7.8125V17.1875C51.5625 17.6019 51.3979 17.9993 51.1049 18.2924C50.8118 18.5854 50.4144 18.75 50 18.75C49.5856 18.75 49.1882 18.5854 48.8951 18.2924C48.6021 17.9993 48.4375 17.6019 48.4375 17.1875V7.8125ZM23.4375 7.8125C23.4375 7.3981 23.6021 7.00067 23.8951 6.70765C24.1882 6.41462 24.5856 6.25 25 6.25C25.4144 6.25 25.8118 6.41462 26.1049 6.70765C26.3979 7.00067 26.5625 7.3981 26.5625 7.8125V17.1875C26.5625 17.6019 26.3979 17.9993 26.1049 18.2924C25.8118 18.5854 25.4144 18.75 25 18.75C24.5856 18.75 24.1882 18.5854 23.8951 18.2924C23.6021 17.9993 23.4375 17.6019 23.4375 17.1875V7.8125ZM10.9375 12.5H20.3125V17.1875C20.3125 18.4307 20.8064 19.623 21.6854 20.5021C22.5645 21.3811 23.7568 21.875 25 21.875C26.2432 21.875 27.4355 21.3811 28.3146 20.5021C29.1936 19.623 29.6875 18.4307 29.6875 17.1875V12.5H45.3125V17.1875C45.3125 18.4307 45.8064 19.623 46.6854 20.5021C47.5645 21.3811 48.7568 21.875 50 21.875C51.2432 21.875 52.4355 21.3811 53.3146 20.5021C54.1936 19.623 54.6875 18.4307 54.6875 17.1875V12.5H70.3125V17.1875C70.3125 18.4307 70.8064 19.623 71.6854 20.5021C72.5645 21.3811 73.7568 21.875 75 21.875C76.2432 21.875 77.4355 21.3811 78.3146 20.5021C79.1936 19.623 79.6875 18.4307 79.6875 17.1875V12.5H89.0625C90.3053 12.5014 91.4967 12.9958 92.3755 13.8745C93.2542 14.7533 93.7486 15.9447 93.75 17.1875V28.125H6.25V17.1875C6.25145 15.9447 6.74577 14.7533 7.62454 13.8745C8.5033 12.9958 9.69474 12.5014 10.9375 12.5ZM89.0625 93.75H10.9375C9.69474 93.7486 8.5033 93.2542 7.62454 92.3755C6.74577 91.4967 6.25145 90.3053 6.25 89.0625V31.25H93.75V89.0625C93.7486 90.3053 93.2542 91.4967 92.3755 92.3755C91.4967 93.2542 90.3053 93.7486 89.0625 93.75Z" fill="black"/>
<path d="M85.9375 42.1875H79.6875C79.2731 42.1875 78.8757 42.3521 78.5826 42.6451C78.2896 42.9382 78.125 43.3356 78.125 43.75V50C78.125 50.4144 78.2896 50.8118 78.5826 51.1049C78.8757 51.3979 79.2731 51.5625 79.6875 51.5625H85.9375C86.3519 51.5625 86.7493 51.3979 87.0424 51.1049C87.3354 50.8118 87.5 50.4144 87.5 50V43.75C87.5 43.3356 87.3354 42.9382 87.0424 42.6451C86.7493 42.3521 86.3519 42.1875 85.9375 42.1875ZM84.375 48.4375H81.25V45.3125H84.375V48.4375Z" fill="black"/>
<path d="M54.6875 73.4375H48.4375C48.0231 73.4375 47.6257 73.6021 47.3326 73.8951C47.0396 74.1882 46.875 74.5856 46.875 75V81.25C46.875 81.6644 47.0396 82.0618 47.3326 82.3549C47.6257 82.6479 48.0231 82.8125 48.4375 82.8125H54.6875C55.1019 82.8125 55.4993 82.6479 55.7924 82.3549C56.0854 82.0618 56.25 81.6644 56.25 81.25V75C56.25 74.5856 56.0854 74.1882 55.7924 73.8951C55.4993 73.6021 55.1019 73.4375 54.6875 73.4375ZM53.125 79.6875H50V76.5625H53.125V79.6875Z" fill="black"/>
<path d="M39.0625 42.1875H32.8125C32.3981 42.1875 32.0007 42.3521 31.7076 42.6451C31.4146 42.9382 31.25 43.3356 31.25 43.75V50C31.25 50.4144 31.4146 50.8118 31.7076 51.1049C32.0007 51.3979 32.3981 51.5625 32.8125 51.5625H39.0625C39.4769 51.5625 39.8743 51.3979 40.1674 51.1049C40.4604 50.8118 40.625 50.4144 40.625 50V43.75C40.625 43.3356 40.4604 42.9382 40.1674 42.6451C39.8743 42.3521 39.4769 42.1875 39.0625 42.1875ZM37.5 48.4375H34.375V45.3125H37.5V48.4375Z" fill="black"/>
<path d="M23.4375 57.8125H17.1875C16.7731 57.8125 16.3757 57.9771 16.0826 58.2701C15.7896 58.5632 15.625 58.9606 15.625 59.375V65.625C15.625 66.0394 15.7896 66.4368 16.0826 66.7299C16.3757 67.0229 16.7731 67.1875 17.1875 67.1875H23.4375C23.8519 67.1875 24.2493 67.0229 24.5424 66.7299C24.8354 66.4368 25 66.0394 25 65.625V59.375C25 58.9606 24.8354 58.5632 24.5424 58.2701C24.2493 57.9771 23.8519 57.8125 23.4375 57.8125ZM21.875 64.0625H18.75V60.9375H21.875V64.0625Z" fill="black"/>
<path d="M39.0625 57.8125H32.8125C32.3981 57.8125 32.0007 57.9771 31.7076 58.2701C31.4146 58.5632 31.25 58.9606 31.25 59.375V65.625C31.25 66.0394 31.4146 66.4368 31.7076 66.7299C32.0007 67.0229 32.3981 67.1875 32.8125 67.1875H39.0625C39.4769 67.1875 39.8743 67.0229 40.1674 66.7299C40.4604 66.4368 40.625 66.0394 40.625 65.625V59.375C40.625 58.9606 40.4604 58.5632 40.1674 58.2701C39.8743 57.9771 39.4769 57.8125 39.0625 57.8125ZM37.5 64.0625H34.375V60.9375H37.5V64.0625Z" fill="black"/>
<path d="M23.4375 73.4375H17.1875C16.7731 73.4375 16.3757 73.6021 16.0826 73.8951C15.7896 74.1882 15.625 74.5856 15.625 75V81.25C15.625 81.6644 15.7896 82.0618 16.0826 82.3549C16.3757 82.6479 16.7731 82.8125 17.1875 82.8125H23.4375C23.8519 82.8125 24.2493 82.6479 24.5424 82.3549C24.8354 82.0618 25 81.6644 25 81.25V75C25 74.5856 24.8354 74.1882 24.5424 73.8951C24.2493 73.6021 23.8519 73.4375 23.4375 73.4375ZM21.875 79.6875H18.75V76.5625H21.875V79.6875Z" fill="black"/>
<path d="M39.0625 73.4375H32.8125C32.3981 73.4375 32.0007 73.6021 31.7076 73.8951C31.4146 74.1882 31.25 74.5856 31.25 75V81.25C31.25 81.6644 31.4146 82.0618 31.7076 82.3549C32.0007 82.6479 32.3981 82.8125 32.8125 82.8125H39.0625C39.4769 82.8125 39.8743 82.6479 40.1674 82.3549C40.4604 82.0618 40.625 81.6644 40.625 81.25V75C40.625 74.5856 40.4604 74.1882 40.1674 73.8951C39.8743 73.6021 39.4769 73.4375 39.0625 73.4375ZM37.5 79.6875H34.375V76.5625H37.5V79.6875Z" fill="black"/>
<path d="M72.1109 48.6294L64.2984 47.4357L60.7894 39.9609C60.6633 39.6922 60.4633 39.465 60.2128 39.3059C59.9624 39.1468 59.6717 39.0623 59.375 39.0623C59.0782 39.0623 58.7876 39.1468 58.5371 39.3059C58.2866 39.465 58.0866 39.6922 57.9605 39.9609L54.4531 47.4357L46.6406 48.6294C46.3564 48.6727 46.0897 48.7935 45.8698 48.9785C45.6498 49.1636 45.4852 49.4057 45.394 49.6783C45.3028 49.9508 45.2885 50.2433 45.3528 50.5234C45.417 50.8036 45.5573 51.0606 45.7582 51.2662L51.4576 57.1074L50.1099 65.3742C50.0633 65.6632 50.0988 65.9594 50.2124 66.2292C50.3259 66.499 50.513 66.7315 50.7523 66.9002C50.9916 67.0688 51.2734 67.1668 51.5657 67.1831C51.858 67.1994 52.1489 67.1332 52.4054 66.9921L59.375 63.1398L66.3445 66.9921C66.6011 67.134 66.8925 67.2008 67.1853 67.1848C67.4781 67.1689 67.7605 67.0709 68.0003 66.902C68.24 66.7331 68.4274 66.5002 68.5409 66.2298C68.6545 65.9595 68.6897 65.6626 68.6425 65.3732L67.2949 57.1064L72.9943 51.2652C73.1952 51.0596 73.3354 50.8026 73.3997 50.5224C73.4639 50.2423 73.4497 49.9498 73.3585 49.6773C73.2672 49.4047 73.1026 49.1626 72.8827 48.9775C72.6627 48.7925 72.396 48.6717 72.1119 48.6285L72.1109 48.6294ZM64.5066 55.4882C64.3358 55.6633 64.2085 55.8759 64.1349 56.1092C64.0612 56.3424 64.0434 56.5896 64.0828 56.831L65.0398 62.7003L60.1304 59.9855C59.899 59.8576 59.639 59.7905 59.3746 59.7905C59.1102 59.7905 58.8501 59.8576 58.6187 59.9855L53.7093 62.7003L54.6664 56.831C54.7057 56.5896 54.6879 56.3424 54.6143 56.1092C54.5407 55.8759 54.4133 55.6633 54.2425 55.4882L50.1172 51.2593L55.7486 50.3999C56.0022 50.3612 56.2424 50.2605 56.4479 50.107C56.6534 49.9534 56.8179 49.7515 56.9269 49.5193L59.375 44.3023L61.8232 49.5183C61.9322 49.7506 62.0967 49.9524 62.3022 50.106C62.5077 50.2596 62.7479 50.3602 63.0015 50.399L68.633 51.2583L64.5066 55.4882Z" fill="#F85EFB"/>
<path d="M85.9375 57.8125H79.6875C79.2731 57.8125 78.8757 57.9771 78.5826 58.2701C78.2896 58.5632 78.125 58.9606 78.125 59.375V65.625C78.125 66.0394 78.2896 66.4368 78.5826 66.7299C78.8757 67.0229 79.2731 67.1875 79.6875 67.1875H85.9375C86.3519 67.1875 86.7493 67.0229 87.0424 66.7299C87.3354 66.4368 87.5 66.0394 87.5 65.625V59.375C87.5 58.9606 87.3354 58.5632 87.0424 58.2701C86.7493 57.9771 86.3519 57.8125 85.9375 57.8125ZM84.375 64.0625H81.25V60.9375H84.375V64.0625Z" fill="black"/>
<path d="M85.9375 73.4375H79.6875C79.2731 73.4375 78.8757 73.6021 78.5826 73.8951C78.2896 74.1882 78.125 74.5856 78.125 75V81.25C78.125 81.6644 78.2896 82.0618 78.5826 82.3549C78.8757 82.6479 79.2731 82.8125 79.6875 82.8125H85.9375C86.3519 82.8125 86.7493 82.6479 87.0424 82.3549C87.3354 82.0618 87.5 81.6644 87.5 81.25V75C87.5 74.5856 87.3354 74.1882 87.0424 73.8951C86.7493 73.6021 86.3519 73.4375 85.9375 73.4375ZM84.375 79.6875H81.25V76.5625H84.375V79.6875Z" fill="black"/>
<path d="M70.3125 73.4375H64.0625C63.6481 73.4375 63.2507 73.6021 62.9576 73.8951C62.6646 74.1882 62.5 74.5856 62.5 75V81.25C62.5 81.6644 62.6646 82.0618 62.9576 82.3549C63.2507 82.6479 63.6481 82.8125 64.0625 82.8125H70.3125C70.7269 82.8125 71.1243 82.6479 71.4174 82.3549C71.7104 82.0618 71.875 81.6644 71.875 81.25V75C71.875 74.5856 71.7104 74.1882 71.4174 73.8951C71.1243 73.6021 70.7269 73.4375 70.3125 73.4375ZM68.75 79.6875H65.625V76.5625H68.75V79.6875Z" fill="black"/>
</svg>
