<svg width="230" height="230" viewBox="0 0 230 230" fill="none" xmlns="http://www.w3.org/2000/svg">
<g clip-path="url(#clip0)">
<path d="M0.936996 98.091L39.433 48.0839C40.8578 46.2343 43.4566 45.7781 45.4272 47.031L70.2816 62.8379H102.697C103.117 62.8379 103.534 62.9274 103.938 63.045L129.071 70.2798L155.151 63.1467L180.491 47.031C182.428 45.7992 184.98 46.2168 186.421 48.0031L229 100.744C230.53 102.639 230.277 105.407 228.431 106.995L206.114 126.201L186.092 153.182C191.948 159.42 191.834 169.259 185.741 175.353C183.041 178.052 179.607 179.577 176.074 179.931C176.197 180.732 176.26 181.544 176.26 182.369C176.26 186.626 174.602 190.628 171.593 193.638C168.582 196.649 164.579 198.307 160.322 198.307C160.264 198.307 160.208 198.304 160.152 198.302C160.153 198.411 160.159 198.518 160.159 198.627C160.159 202.884 158.501 206.886 155.491 209.897C152.48 212.907 148.477 214.565 144.22 214.565C143.38 214.565 142.548 214.497 141.732 214.37C141.386 217.915 139.858 221.365 137.149 224.074C134.043 227.182 129.961 228.735 125.88 228.735C121.798 228.735 117.716 227.182 114.609 224.074L112.171 221.637L111.148 222.461C108.067 225.446 104.066 226.938 100.065 226.938C95.9836 226.938 91.9021 225.385 88.7961 222.277C85.6253 219.106 84.0723 214.921 84.1372 210.757C79.9749 210.82 75.7881 209.269 72.6172 206.1C69.4499 202.931 67.8969 198.749 67.9583 194.587C63.6223 194.656 59.5092 192.99 56.4401 189.921C53.2692 186.75 51.7163 182.565 51.7812 178.401C47.6154 178.464 43.4321 176.913 40.2612 173.742C34.8495 168.331 34.1529 159.966 38.166 153.791L23.5471 123.174L1.56871 104.261C-0.247467 102.697 -0.524719 99.9879 0.936996 98.091ZM181.934 56.8033L163.712 68.39L203.35 116.681L219.235 103.01L181.934 56.8033ZM179.363 159.19L173.863 153.691C173.697 153.524 173.521 153.366 173.342 153.219C172.267 152.341 170.965 151.818 169.585 151.694C169.547 151.69 169.506 151.69 169.468 151.688C169.271 151.673 169.075 151.662 168.876 151.664C166.992 151.69 165.241 152.461 163.942 153.831C161.394 156.525 161.531 160.926 164.247 163.642L169.58 168.975C172.277 171.672 176.666 171.672 179.363 168.975C182.06 166.276 182.06 161.887 179.363 159.19ZM165.214 187.259C166.522 185.954 167.241 184.216 167.241 182.369C167.241 180.521 166.522 178.784 165.214 177.476L154.551 166.813C152.508 164.77 149.297 164.21 146.686 165.455C143.994 166.737 142.48 169.659 142.874 172.598C143.085 174.167 143.815 175.644 144.934 176.766L155.43 187.259C156.737 188.567 158.474 189.286 160.322 189.286C162.17 189.286 163.907 188.567 165.214 187.259ZM149.113 203.517C150.42 202.212 151.139 200.474 151.139 198.627C151.139 196.779 150.42 195.042 149.113 193.734L138.451 183.071C136.266 180.888 132.762 180.417 130.087 181.974C127.645 183.395 126.366 186.185 126.785 188.965C127.015 190.493 127.741 191.93 128.835 193.024L139.328 203.517C140.635 204.824 142.373 205.544 144.22 205.544C146.068 205.544 147.805 204.824 149.113 203.517ZM130.772 217.696C133.469 214.998 133.469 210.61 130.772 207.913L125.272 202.413C125.106 202.247 124.932 202.09 124.753 201.943C124.748 201.94 124.744 201.936 124.741 201.933C123.846 201.206 122.795 200.72 121.673 200.508C121.647 200.504 121.621 200.501 121.594 200.497C121.401 200.462 121.205 200.434 121.008 200.416C120.929 200.409 120.85 200.409 120.77 200.404C120.608 200.395 120.449 200.385 120.285 200.387C118.402 200.413 116.649 201.182 115.351 202.554C115.191 202.722 115.042 202.898 114.905 203.078C112.831 205.79 113.11 209.817 115.684 212.393L120.989 217.697C123.686 220.394 128.075 220.393 130.772 217.696ZM46.6398 167.364C49.3368 170.063 53.7255 170.061 56.4225 167.364C56.5208 167.265 56.6243 167.174 56.7296 167.088L85.7288 137.784C87.4818 136.013 90.3368 135.999 92.1074 137.752C93.8779 139.503 93.892 142.358 92.1407 144.129L62.8274 173.748C62.8239 173.751 62.8204 173.755 62.8169 173.758C60.1198 176.455 60.1198 180.846 62.8169 183.543C64.1242 184.85 65.8614 185.569 67.7092 185.569C69.5587 185.569 71.2959 184.85 72.6014 183.543L92.2109 163.73C93.9622 161.959 96.8172 161.945 98.5877 163.696C100.358 165.449 100.372 168.304 98.621 170.075L79.3116 189.584C79.2134 189.707 79.1081 189.825 78.9958 189.937C76.2987 192.634 76.2987 197.024 78.9958 199.722C81.6946 202.419 86.085 202.417 88.7821 199.72L99.4844 188.905C101.237 187.135 104.092 187.119 105.863 188.872C107.633 190.623 107.648 193.478 105.896 195.249L95.4923 205.76C95.394 205.883 95.2888 206.002 95.1747 206.114C92.4776 208.811 92.4776 213.202 95.1747 215.899C97.8718 218.598 102.26 218.596 104.957 215.899C105.268 215.588 105.633 215.349 105.981 215.083C106.275 214.858 106.353 214.702 106.205 214.344C106.056 213.981 105.833 213.653 105.684 213.288C105.519 212.88 105.386 212.461 105.256 212.04C104.564 209.811 104.361 207.414 104.671 205.102C105.268 200.664 107.709 196.659 111.408 194.126C113.407 192.759 115.719 191.862 118.116 191.525C116.955 186.401 118.35 180.846 121.979 177.011C124.965 173.856 128.999 172.086 133.339 172.026C133.497 172.024 133.655 172.024 133.815 172.026C133.718 167.885 135.224 163.77 138.079 160.754C141.067 157.598 145.101 155.828 149.439 155.768C150.729 155.751 152.031 155.888 153.287 156.177C153.824 152.441 155.707 148.984 158.558 146.512C161.392 144.059 164.956 142.697 168.752 142.644C172.747 142.587 176.673 144.061 179.64 146.74L197.074 123.249L155.367 72.4382L142.074 76.0741L159.434 106.707C161.533 110.411 162.063 114.71 160.927 118.813C159.792 122.917 157.128 126.332 153.424 128.431C153.192 128.562 152.959 128.687 152.722 128.806C152.705 128.815 152.687 128.824 152.668 128.833C152.045 129.143 151.404 129.41 150.755 129.635C147.732 130.682 144.466 130.796 141.316 129.926C137.214 128.791 133.799 126.125 131.7 122.423L120.419 102.515L100.276 103.943L46.638 157.579C43.9427 160.278 43.9427 164.667 46.6398 167.364ZM44.7709 146.691L95.0887 96.3749C95.1835 96.2784 95.2835 96.1871 95.387 96.1011C96.1117 95.4975 97.0102 95.1325 97.9577 95.0658L122.621 93.3163C124.327 93.1988 126.022 94.106 126.864 95.5923L139.547 117.976C140.458 119.583 141.941 120.74 143.722 121.233C145.501 121.726 147.368 121.494 148.977 120.584C150.585 119.673 151.741 118.19 152.234 116.409C152.727 114.628 152.497 112.761 151.585 111.153L134.653 81.2717L127.792 79.2976C127.747 79.2835 127.703 79.266 127.657 79.2519L102.05 71.8574H71.1099L32.4841 120.959L44.7709 146.691ZM26.5758 113.88L62.2957 68.4479L44.0655 56.8542L10.6882 100.209L26.5758 113.88Z" fill="#FEFEFF"/>
<path d="M90.6597 54.3696C89.5051 54.3696 88.3504 53.9291 87.4695 53.0482L56.6629 22.2416C54.9012 20.4799 54.9012 17.6249 56.6629 15.8631C58.4247 14.1013 61.2797 14.1013 63.0415 15.8631L93.8481 46.6697C95.6099 48.4314 95.6099 51.2864 93.8481 53.0482C92.9672 53.9291 91.8126 54.3696 90.6597 54.3696Z" fill="#FEFEFF"/>
<path d="M142.53 53.0482C141.65 53.9291 140.495 54.3696 139.34 54.3696C138.187 54.3696 137.033 53.9291 136.152 53.0482C134.39 51.2864 134.39 48.4314 136.152 46.6697L166.958 15.8631C168.72 14.1013 171.575 14.1013 173.337 15.8631C175.099 17.6249 175.099 20.4799 173.337 22.2416L142.53 53.0482Z" fill="#FEFEFF"/>
<path d="M115 54.3696C112.51 54.3696 110.49 52.3499 110.49 49.8599V24.365C110.49 21.875 112.51 19.8552 115 19.8552C117.49 19.8552 119.51 21.875 119.51 24.365V49.8599C119.51 52.3499 117.49 54.3696 115 54.3696Z" fill="#FEFEFF"/>
<path d="M119.162 8.01922C118.446 9.75468 116.662 10.8935 114.779 10.7953C112.919 10.6987 111.285 9.44233 110.71 7.67178C110.132 5.88718 110.761 3.85342 112.256 2.71633C113.78 1.55468 115.907 1.48975 117.502 2.54436C119.282 3.72005 119.971 6.0609 119.162 8.01922Z" fill="#FEFEFF"/>
</g>
<defs>
<clipPath id="clip0">
<rect width="230" height="230" fill="white" transform="matrix(-1 0 0 1 230 0)"/>
</clipPath>
</defs>
</svg>
