<svg width="102" height="100" viewBox="0 0 102 100" fill="none" xmlns="http://www.w3.org/2000/svg">
<path d="M72.3724 0H13.191C6.83908 0.00820823 1.69173 5.14841 1.68351 11.4915V70.4545C1.69173 76.7976 6.83908 81.9378 13.191 81.946H31.2742V78.6627H13.191C8.65377 78.6574 4.97671 74.9854 4.97137 70.4545V42.6828H15.5287C16.5029 42.6116 17.2351 41.7653 17.1638 40.7922C17.15 40.6047 17.1064 40.4204 17.0345 40.2466C15.5735 36.9263 17.0842 33.0521 20.4091 31.5931C23.7339 30.134 27.6136 31.6427 29.0746 34.9629C29.8154 36.6464 29.8154 38.5631 29.0746 40.2466C28.6686 41.0949 29.0282 42.1113 29.8777 42.5168C30.0974 42.6216 30.3372 42.6783 30.5805 42.683H41.1378V52.5329C40.5947 52.4405 40.0448 52.395 39.4939 52.3966C34.0463 52.3948 29.6289 56.8032 29.6268 62.243C29.6254 66.1622 31.9509 69.7092 35.5484 71.2755L36.8636 68.268C33.5334 66.8213 32.008 62.9528 33.4565 59.6272C34.5017 57.2278 36.8737 55.677 39.4939 55.6799C40.3999 55.6797 41.2958 55.8687 42.1242 56.2348C42.9562 56.5974 43.9253 56.2177 44.2884 55.3869C44.3788 55.18 44.4254 54.9567 44.4257 54.731V42.6828H52.785C52.6915 43.2249 52.6447 43.7743 52.6453 44.3244C52.6552 49.0019 55.949 53.0313 60.5362 53.9773L61.1937 50.7613C58.1356 50.1295 55.9399 47.4429 55.9332 44.3244C55.9329 43.4197 56.1222 42.525 56.4888 41.6978C56.8519 40.8669 56.4718 39.8992 55.6397 39.5366C55.4326 39.4463 55.209 39.3997 54.983 39.3995H44.4257V31.0517C44.9686 31.1451 45.5187 31.1919 46.0696 31.1913C51.5172 31.1913 55.9332 26.7814 55.9332 21.3414C55.9332 15.9014 51.5172 11.4915 46.0696 11.4915C45.5187 11.4909 44.9686 11.5377 44.4257 11.6311V3.28329H72.3724C76.9097 3.28863 80.5867 6.96058 80.5921 11.4915V39.3995H70.0348C69.1269 39.3999 68.3913 40.1354 68.3917 41.042C68.3919 41.2677 68.4385 41.4909 68.5289 41.6978C68.8955 42.525 69.0848 43.4197 69.0846 44.3244H72.3724C72.3731 43.7743 72.3262 43.2249 72.2327 42.6828H82.236C83.1439 42.6828 83.8799 41.9477 83.8799 41.0411V11.4915C83.8717 5.14841 78.7244 0.00820823 72.3724 0ZM46.0696 14.7748C49.7012 14.7748 52.6453 17.7148 52.6453 21.3414C52.6453 24.968 49.7012 27.908 46.0696 27.908C45.1636 27.9082 44.2676 27.7192 43.4393 27.3531C42.6073 26.9905 41.6382 27.3701 41.2751 28.201C41.1846 28.4079 41.138 28.6311 41.1378 28.8568V39.2632H32.7899C32.8723 38.7656 32.9151 38.2622 32.9182 37.7578C32.9182 37.7283 32.9182 37.702 32.9182 37.6725C32.9182 37.6429 32.9182 37.638 32.9182 37.6216C32.9182 32.1816 28.5022 27.7717 23.0546 27.7717C17.607 27.7717 13.191 32.1816 13.191 37.6216C13.191 37.638 13.191 37.6561 13.191 37.6725C13.191 37.6889 13.191 37.7283 13.191 37.7578C13.1941 38.2622 13.2368 38.7656 13.3192 39.2632H4.97137V11.4915C4.97671 6.96058 8.65377 3.28863 13.191 3.28329H41.1378V13.8259C41.1382 14.7325 41.8747 15.4672 42.7825 15.4668C43.0086 15.4666 43.2322 15.42 43.4393 15.3297C44.2676 14.9636 45.1636 14.7746 46.0696 14.7748Z" fill="#0D2856"/>
<path d="M96.8028 70.5611L82.9823 61.0576L77.6741 46.8951C77.3574 46.0454 76.4109 45.613 75.56 45.9292C75.5296 45.9405 75.4994 45.9528 75.4696 45.966L64.7841 50.6857C63.9831 51.0389 63.6 51.9571 63.9128 52.7739C64.0903 53.2335 64.2564 53.5816 64.4323 53.9427C64.6082 54.3039 64.7709 54.6421 64.9698 55.1756C66.2459 58.5806 64.5278 62.3756 61.1247 63.6678C57.7232 64.9383 53.9343 63.2147 52.6619 59.8178C52.3428 58.9657 52.2045 58.0569 52.2557 57.1489C52.3034 56.2435 51.6069 55.4709 50.7003 55.4233C50.473 55.4114 50.246 55.4467 50.0331 55.5269L38.6111 59.8231C37.763 60.1422 37.3335 61.0865 37.651 61.9342L41.751 72.8725C41.2075 72.9714 40.6738 73.1186 40.1564 73.3125C35.0407 75.2162 32.4392 80.9008 34.3455 86.0094C36.2518 91.118 41.9443 93.7159 47.06 91.8122C47.5867 91.6162 48.0957 91.3757 48.5815 91.0931L51.5208 98.9336C51.8394 99.7828 52.7867 100.213 53.637 99.895C53.638 99.8946 53.6388 99.8942 53.6399 99.894L69.9279 93.7658C70.951 95.9619 72.8338 97.6406 75.1342 98.4083L76.1732 95.2892C74.8182 94.8332 73.6921 93.8723 73.03 92.6067L77.9864 90.7435C79.6146 95.3165 83.9516 98.3687 88.8117 98.3624V95.0791C84.2837 95.0514 80.6198 91.3925 80.5921 86.8708C80.5921 86.4354 80.4186 86.018 80.1104 85.7102L74.3862 79.994C73.5376 79.1391 73.4418 77.7934 74.161 76.8273C74.5798 76.2627 75.2263 75.911 75.9282 75.8653C76.6312 75.8062 77.3235 76.0647 77.8155 76.5695L89.2934 88.0315L91.6179 85.7102L88.2215 82.3186C89.0583 79.8198 89.0067 77.1092 88.0752 74.6439L84.9945 66.4274L94.9288 73.2583C96.2456 74.1813 97.0301 75.6869 97.0313 77.2935V98.4986H100.319V77.2935C100.317 74.6108 99.0045 72.0981 96.8028 70.5611ZM84.9962 75.7947C85.4503 77 85.6147 78.2949 85.4762 79.5754L80.14 74.2482C77.9373 71.9924 74.3207 71.9471 72.0617 74.1464C69.8028 76.346 69.7573 79.9577 71.9598 82.2135C71.9933 82.2478 72.0272 82.2818 72.0617 82.3153L77.2615 87.5078L54.0295 96.2463L50.8962 87.8854C50.7011 87.3658 50.2565 86.98 49.7142 86.8593C49.597 86.8335 49.4774 86.8202 49.3574 86.82C48.9273 86.8195 48.5143 86.9876 48.2067 87.2878C45.5669 89.7784 41.4049 89.6604 38.9109 87.0241C36.4168 84.3881 36.535 80.2318 39.1749 77.7412C39.7959 77.1554 40.525 76.6961 41.3219 76.3887C41.8453 76.195 42.3919 76.0715 42.9478 76.021C43.2897 75.9791 43.6345 75.9677 43.9785 75.9865C44.8851 76.0339 45.6588 75.3385 45.7063 74.4331C45.7182 74.208 45.6835 73.9829 45.6043 73.7719L41.3104 62.3231L49.1388 59.3796C50.1662 64.722 55.336 68.2209 60.6857 67.1951C61.2324 67.0902 61.7691 66.9394 62.2902 66.7441C67.3878 64.8127 69.9645 59.1311 68.0555 54.0312C67.9042 53.6273 67.7678 53.3072 67.6363 53.0215L75.1983 49.6775L84.9962 75.7947Z" fill="#F85EFB"/>
</svg>
