<svg width="70" height="100" viewBox="0 0 70 100" fill="none" xmlns="http://www.w3.org/2000/svg">
<g clip-path="url(#clip0)">
<path d="M3.48783 48.4608L36.9661 0.634854C37.252 0.227246 37.6396 -0.00101515 38.0435 3.87124e-06H65.4348C66.2752 -0.00223797 66.9577 0.9695 66.9593 2.17011C66.96 2.74891 66.7991 3.30428 66.5122 3.71311L34.1083 50.0001L66.5122 96.2869C67.1072 97.1347 67.1084 98.5112 66.5149 99.3613C66.2287 99.7711 65.84 100.001 65.4348 100H38.0435C37.6396 100.001 37.252 99.7727 36.9661 99.3651L3.48783 51.539C2.89278 50.6912 2.89164 49.3147 3.48511 48.4646C3.48611 48.4634 3.48697 48.4622 3.48783 48.4608Z" fill="#F85EFB"/>
</g>
<defs>
<clipPath id="clip0">
<rect width="70" height="100" fill="white" transform="matrix(-1 0 0 1 70 0)"/>
</clipPath>
</defs>
</svg>
