<svg width="386" height="51" viewBox="0 0 386 51" fill="none" xmlns="http://www.w3.org/2000/svg">
<g clip-path="url(#clip0)">
<path d="M13.5146 9.61914H5.02608C4.10006 9.61914 3.35072 8.96396 3.35072 8.1543C3.35072 7.34463 4.10006 6.68945 5.02608 6.68945H13.5146C14.4406 6.68945 15.1899 7.34463 15.1899 8.1543C15.1899 8.96396 14.4406 9.61914 13.5146 9.61914Z" fill="white"/>
<path d="M13.5146 21.3379H5.02608C4.10006 21.3379 3.35072 20.6827 3.35072 19.873C3.35072 19.0634 4.10006 18.4082 5.02608 18.4082H13.5146C14.4406 18.4082 15.1899 19.0634 15.1899 19.873C15.1899 20.6827 14.4406 21.3379 13.5146 21.3379Z" fill="white"/>
<path d="M10.1639 15.4785H1.67536C0.749333 15.4785 0 14.8233 0 14.0137C0 13.204 0.749333 12.5488 1.67536 12.5488H10.1639C11.0899 12.5488 11.8392 13.204 11.8392 14.0137C11.8392 14.8233 11.0899 15.4785 10.1639 15.4785Z" fill="white"/>
<path d="M31.2892 4.98473C29.9574 4.21081 28.1904 4.36393 27.0614 5.35094L17.847 13.4076C16.5381 14.552 16.5381 16.4059 17.847 17.5504C19.1559 18.6948 21.2762 18.6948 22.5851 17.5504L29.8575 11.1918L35.0615 14.4694L42.1789 11.5765L31.2892 4.98473Z" fill="white"/>
<path d="M24.5484 23.6611L2.76873 42.7041C1.45982 43.8485 1.45982 45.7024 2.76873 46.8469C4.07752 47.9912 6.19796 47.9913 7.50687 46.8469L26.9175 29.8753L24.5484 23.6611Z" fill="white"/>
<path d="M53.8349 19.8729H43.6711V14.0135C43.6711 12.8618 42.8743 11.7718 41.6008 11.31C40.3186 10.8463 38.8754 11.133 37.9503 11.943L24.5484 23.6609C23.2395 24.8053 23.2395 26.6592 24.5484 27.8036L32.2315 34.5213L22.873 42.7038C21.5641 43.8483 21.5641 45.7022 22.873 46.8466C24.1818 47.9909 26.3023 47.991 27.6112 46.8466L39.3387 36.5927C40.6476 35.4483 40.6476 33.5944 39.3387 32.4499L31.6556 25.7323L36.9696 21.086V22.8026C36.9696 24.4204 38.47 25.7323 40.3204 25.7323H53.8349C55.6853 25.7323 57.1857 24.4204 57.1857 22.8026C57.1857 21.1847 55.6853 19.8729 53.8349 19.8729Z" fill="white"/>
<path d="M48.6972 11.084C51.473 11.084 53.7232 9.11649 53.7232 6.68945C53.7232 4.26242 51.473 2.29492 48.6972 2.29492C45.9213 2.29492 43.6711 4.26242 43.6711 6.68945C43.6711 9.11649 45.9213 11.084 48.6972 11.084Z" fill="white"/>
</g>
<path d="M98.6156 15.0898H106.403L100.901 41H95.8558L99.5648 23.4746C99.682 22.9707 99.8402 22.2676 100.039 21.3652C100.25 20.4512 100.403 19.748 100.496 19.2559L90.9867 41H85.7308L85.4671 19.2559C85.3734 19.748 85.2328 20.4512 85.0453 21.3652C84.8695 22.2676 84.723 22.9707 84.6058 23.4746L80.8968 41H75.8519L81.3539 15.0898H89.2289L89.598 35.4629L98.6156 15.0898ZM127.145 28.0098C127.754 25.1035 127.596 22.8594 126.67 21.2773C125.756 19.6836 124.227 18.8867 122.082 18.8867C119.938 18.8867 118.057 19.6777 116.44 21.2598C114.834 22.8418 113.721 25.0918 113.1 28.0098C112.479 30.9277 112.637 33.1777 113.575 34.7598C114.512 36.3418 116.053 37.1328 118.198 37.1328C120.342 37.1328 122.211 36.3418 123.805 34.7598C125.41 33.1777 126.524 30.9277 127.145 28.0098ZM126.354 38.6973C123.975 40.7129 120.934 41.7207 117.231 41.7207C113.528 41.7207 110.909 40.7129 109.373 38.6973C107.276 36.2246 106.725 32.6621 107.721 28.0098C108.729 23.2637 110.797 19.7012 113.926 17.3223C116.305 15.3066 119.346 14.2988 123.049 14.2988C126.752 14.2988 129.371 15.3066 130.907 17.3223C133.016 19.7012 133.567 23.2637 132.559 28.0098C131.563 32.6621 129.494 36.2246 126.354 38.6973ZM154.619 15.0898H160.244L145.901 41H140.785L137.534 15.0898H143.317L144.758 34.7598L154.619 15.0898ZM181.637 19.6777H167.926L166.766 25.1797H179.352L178.385 29.6797H165.799L164.393 36.3418H178.737L177.752 41H158.118L163.619 15.0898H182.621L181.637 19.6777ZM211.643 15.0898H217.778L205.666 31.2617L203.61 41H198.196L200.252 31.2617L194.733 15.0898H201.114L204.084 26.375L211.643 15.0898ZM236.586 28.0098C237.196 25.1035 237.037 22.8594 236.112 21.2773C235.198 19.6836 233.668 18.8867 231.524 18.8867C229.379 18.8867 227.498 19.6777 225.881 21.2598C224.276 22.8418 223.162 25.0918 222.541 28.0098C221.92 30.9277 222.078 33.1777 223.016 34.7598C223.953 36.3418 225.494 37.1328 227.639 37.1328C229.784 37.1328 231.653 36.3418 233.246 34.7598C234.852 33.1777 235.965 30.9277 236.586 28.0098ZM235.795 38.6973C233.416 40.7129 230.375 41.7207 226.672 41.7207C222.969 41.7207 220.35 40.7129 218.815 38.6973C216.717 36.2246 216.166 32.6621 217.162 28.0098C218.17 23.2637 220.239 19.7012 223.368 17.3223C225.746 15.3066 228.787 14.2988 232.491 14.2988C236.194 14.2988 238.813 15.3066 240.348 17.3223C242.457 19.7012 243.008 23.2637 242 28.0098C241.004 32.6621 238.936 36.2246 235.795 38.6973ZM253.338 19.5898L251.862 26.5508H257.996C259.215 26.5508 260.159 26.4102 260.827 26.1289C262.01 25.6367 262.76 24.6641 263.077 23.2109C263.405 21.6406 263.106 20.5859 262.18 20.0469C261.653 19.7422 260.803 19.5898 259.631 19.5898H253.338ZM267.875 17.5684C268.297 18.2246 268.584 18.9512 268.737 19.748C268.901 20.5449 268.877 21.4531 268.666 22.4727C268.397 23.7031 267.823 24.916 266.944 26.1113C266.077 27.2949 264.875 28.1328 263.34 28.625C264.43 29.1055 265.127 29.791 265.432 30.6816C265.748 31.5605 265.713 32.9082 265.327 34.7246L264.957 36.4648C264.711 37.6484 264.588 38.4512 264.588 38.873C264.588 39.541 264.811 40.0332 265.256 40.3496L265.133 41H259.174C259.127 40.4258 259.104 39.9629 259.104 39.6113C259.116 38.8848 259.198 38.1406 259.35 37.3789L259.825 34.9707C260.153 33.3184 260.082 32.2168 259.614 31.666C259.157 31.1152 258.131 30.8398 256.537 30.8398H250.948L248.803 41H243.512L249.014 15.0898H261.723C263.528 15.125 264.875 15.3477 265.766 15.7578C266.657 16.168 267.36 16.7715 267.875 17.5684ZM289.215 19.5898L288.002 25.3027H294.366C295.502 25.3027 296.469 25.0918 297.266 24.6699C298.075 24.2363 298.596 23.4746 298.83 22.3848C299.077 21.1777 298.778 20.3809 297.934 19.9941C297.172 19.7246 296.164 19.5898 294.91 19.5898H289.215ZM287.088 29.5918L285.629 36.5H291.993C293.129 36.5 294.043 36.3477 294.735 36.043C296.012 35.4805 296.821 34.4023 297.16 32.8086C297.442 31.4609 297.078 30.5352 296.071 30.0312C295.508 29.75 294.664 29.6035 293.539 29.5918H287.088ZM303.752 17.8496C304.315 18.9512 304.438 20.2695 304.121 21.8047C303.782 23.3867 303.108 24.6582 302.1 25.6191C301.549 26.1582 300.793 26.6504 299.832 27.0957C301.051 27.5762 301.883 28.3379 302.328 29.3809C302.785 30.4238 302.856 31.6895 302.539 33.1777C302.211 34.7129 301.532 36.0898 300.5 37.3086C299.832 38.1172 299.071 38.7969 298.215 39.3477C297.254 39.9805 296.182 40.4141 294.998 40.6484C293.827 40.8828 292.578 41 291.254 41H279.512L285.014 15.0898H297.6C300.764 15.1367 302.815 16.0566 303.752 17.8496ZM326.657 28.0098C327.266 25.1035 327.108 22.8594 326.182 21.2773C325.268 19.6836 323.739 18.8867 321.594 18.8867C319.45 18.8867 317.569 19.6777 315.952 21.2598C314.346 22.8418 313.233 25.0918 312.612 28.0098C311.991 30.9277 312.149 33.1777 313.086 34.7598C314.024 36.3418 315.565 37.1328 317.709 37.1328C319.854 37.1328 321.723 36.3418 323.317 34.7598C324.922 33.1777 326.035 30.9277 326.657 28.0098ZM325.866 38.6973C323.487 40.7129 320.446 41.7207 316.743 41.7207C313.039 41.7207 310.42 40.7129 308.885 38.6973C306.787 36.2246 306.237 32.6621 307.233 28.0098C308.241 23.2637 310.309 19.7012 313.438 17.3223C315.817 15.3066 318.858 14.2988 322.561 14.2988C326.264 14.2988 328.883 15.3066 330.418 17.3223C332.528 19.7012 333.078 23.2637 332.071 28.0098C331.075 32.6621 329.006 36.2246 325.866 38.6973ZM343.25 19.5898L339.664 36.5H344.657C347.211 36.5 349.262 35.2402 350.809 32.7207C351.653 31.3379 352.274 29.6914 352.672 27.7812C353.235 25.1445 353.252 23.123 352.725 21.7168C352.198 20.2988 350.703 19.5898 348.243 19.5898H343.25ZM354.008 15.6523C355.696 16.25 356.932 17.3457 357.717 18.9395C358.35 20.2285 358.666 21.623 358.666 23.123C358.678 24.623 358.543 26.0527 358.262 27.4121C357.524 30.8574 356.211 33.7754 354.325 36.166C351.77 39.3887 348.535 41 344.621 41H333.459L338.961 15.0898H350.123C351.717 15.1133 353.012 15.3008 354.008 15.6523ZM379.76 15.0898H385.895L373.784 31.2617L371.727 41H366.313L368.369 31.2617L362.85 15.0898H369.231L372.202 26.375L379.76 15.0898Z" fill="white"/>
<defs>
<clipPath id="clip0">
<rect width="57.1856" height="50" fill="white"/>
</clipPath>
</defs>
</svg>
