<svg width="100" height="100" viewBox="0 0 100 100" fill="none" xmlns="http://www.w3.org/2000/svg">
<g clip-path="url(#clip0)">
<path d="M99.9802 38.2301C99.9699 38.1152 99.947 38.0017 99.9119 37.8918C99.889 37.7935 99.8572 37.6976 99.8169 37.605C99.7703 37.5146 99.7144 37.429 99.6503 37.3499C99.5861 37.256 99.5117 37.1695 99.4286 37.0915C99.4019 37.0683 99.3904 37.0364 99.362 37.0132L83.3329 24.5643V11.6621C83.3329 8.90065 81.0941 6.66186 78.3326 6.66186H60.27L53.0378 1.04654C51.2512 -0.346893 48.7458 -0.346893 46.9592 1.04654L39.7254 6.66186H21.6628C18.9013 6.66186 16.6625 8.90045 16.6625 11.6621V24.5645L0.638469 37.0134C0.610148 37.0368 0.598428 37.0685 0.571864 37.0917C0.488852 37.1695 0.414434 37.2562 0.350173 37.3501C0.286108 37.4292 0.230245 37.5146 0.183563 37.6052C0.143132 37.6976 0.111489 37.7937 0.0886367 37.892C0.0538693 38.0004 0.0310166 38.1121 0.0202738 38.2254C0.0202738 38.2603 0.000350952 38.2904 0.000350952 38.3254V94.9995C0.00269482 96.0598 0.345681 97.0911 0.978721 97.9413C0.988682 97.9563 0.99044 97.9747 1.00196 97.988C1.01368 98.0013 1.03868 98.0163 1.05529 98.0347C1.99166 99.2668 3.44799 99.9932 4.99553 99.9998H95.0001C96.5537 99.9951 98.0161 99.2652 98.9536 98.0265C98.9669 98.0099 98.987 98.0048 98.9985 97.9882C99.0103 97.9716 99.0118 97.9565 99.022 97.9415C99.655 97.0911 99.998 96.0598 100 94.9997V38.3301C100 38.2951 99.982 38.265 99.9802 38.2301ZM48.9976 3.67655C49.5796 3.21403 50.4039 3.21403 50.9859 3.67655L54.8311 6.66167H45.164L48.9976 3.67655ZM5.41547 96.6664L48.9978 62.813C49.5802 62.3512 50.4039 62.3512 50.9861 62.813L94.58 96.6664H5.41547ZM96.6668 94.0679L53.0378 60.1827C51.2508 58.7905 48.7462 58.7905 46.9592 60.1827L3.32865 94.0679V40.8685L30.6417 62.078C31.3695 62.6422 32.4168 62.5098 32.9811 61.782C33.5454 61.0543 33.413 60.007 32.6852 59.4427L4.93713 37.8966L16.6627 28.7845V41.6634C16.6627 42.584 17.409 43.3301 18.3294 43.3301C19.25 43.3301 19.9961 42.5838 19.9961 41.6634V11.6619C19.9961 10.7414 20.7422 9.99523 21.6628 9.99523H78.3323C79.2528 9.99523 79.9989 10.7414 79.9989 11.6619V41.6634C79.9989 42.584 80.7451 43.3301 81.6656 43.3301C82.5862 43.3301 83.3323 42.5838 83.3323 41.6634V28.7845L95.0579 37.8966L67.2616 59.4811C66.7834 59.8435 66.5367 60.4349 66.616 61.0297C66.6953 61.6244 67.0881 62.1307 67.6446 62.3551C68.2011 62.5795 68.8353 62.4877 69.305 62.1145L96.6664 40.8685V94.0679H96.6668Z" fill="white"/>
<path d="M69.9985 39.9961V33.3291C69.9985 22.2829 61.0437 13.3281 49.9975 13.3281C38.9512 13.3281 29.9965 22.2829 29.9965 33.3291C29.9965 44.3754 38.9512 53.3302 49.9975 53.3302C50.918 53.3302 51.6642 52.584 51.6642 51.6635C51.6642 50.7429 50.918 49.9968 49.9975 49.9968C40.7923 49.9968 33.33 42.5345 33.33 33.3293C33.33 24.1242 40.7923 16.6619 49.9975 16.6619C59.2026 16.6619 66.6649 24.1242 66.6649 33.3293V39.9963C66.6649 41.8374 65.1725 43.3298 63.3313 43.3298C61.4902 43.3298 59.9978 41.8374 59.9978 39.9963V33.3293C59.9978 32.4088 59.2517 31.6626 58.3311 31.6626C57.4105 31.6626 56.6644 32.4088 56.6644 33.3293C56.6644 37.0114 53.6795 39.9963 49.9975 39.9963C46.3154 39.9963 43.3305 37.0114 43.3305 33.3293C43.3305 29.6473 46.3154 26.6624 49.9975 26.6624C50.918 26.6624 51.6642 25.9163 51.6642 24.9957C51.6642 24.0752 50.918 23.329 49.9975 23.329C45.5217 23.3191 41.5842 26.2843 40.3575 30.5888C39.1309 34.8933 40.9136 39.4886 44.7224 41.8395C48.5312 44.1904 53.4381 43.7244 56.7361 40.6983C57.099 44.2231 60.1626 46.8439 63.7011 46.6566C67.2397 46.4691 70.0096 43.5396 69.9985 39.9961Z" fill="#F85EFB"/>
</g>
<defs>
<clipPath id="clip0">
<rect width="100" height="100" fill="white"/>
</clipPath>
</defs>
</svg>
