<svg width="100" height="100" viewBox="0 0 100 100" fill="none" xmlns="http://www.w3.org/2000/svg">
<path d="M96.6393 0H41.658C39.8049 0 38.2973 1.50762 38.2973 3.36074V16.3047H22.5094C20.6563 16.3047 19.1486 17.8123 19.1486 19.6654V32.6094H3.41797C1.5334 32.6094 0 34.1428 0 36.0273V96.582C0 98.4666 1.5334 100 3.41797 100H58.2848C60.1693 100 61.7027 98.4666 61.7027 96.582V83.6926C61.7201 83.6932 61.7371 83.6951 61.7547 83.6951H77.4906C79.3438 83.6951 80.8514 82.1875 80.8514 80.3344V67.3904H96.6393C98.4924 67.3904 100 65.8828 100 64.0297V3.36074C100 1.50762 98.4924 0 96.6393 0ZM58.773 96.582C58.773 96.8512 58.5539 97.0703 58.2848 97.0703H3.41797C3.14883 97.0703 2.92969 96.8512 2.92969 96.582V36.0275C2.92969 35.7584 3.14883 35.5393 3.41797 35.5393H58.2848C58.5539 35.5393 58.773 35.7584 58.773 36.0275V96.582ZM77.9217 80.3346C77.9217 80.5723 77.7283 80.7656 77.4906 80.7656H61.7547C61.7371 80.7656 61.7201 80.7676 61.7027 80.7682V68.5279H72.7508C74.0813 68.5279 75.1637 67.4455 75.1637 66.115V41.2156C75.1637 40.4066 74.5078 39.7508 73.6988 39.7508C72.8898 39.7508 72.234 40.4066 72.234 41.2156V65.5982H61.7027V36.0275C61.7027 34.143 60.1693 32.6096 58.2848 32.6096H27.766V24.9223H72.234V35.7176C72.234 36.5266 72.8898 37.1824 73.6988 37.1824C74.5078 37.1824 75.1637 36.5266 75.1637 35.7176V24.4055C75.1637 23.075 74.0813 21.9926 72.7508 21.9926H27.2492C25.9188 21.9926 24.8363 23.075 24.8363 24.4055V32.6098H22.0783V19.6658C22.0783 19.4281 22.2717 19.2348 22.5094 19.2348H77.4906C77.7283 19.2348 77.9217 19.4281 77.9217 19.6658V80.3346ZM97.0703 64.0297C97.0703 64.2674 96.877 64.4607 96.6393 64.4607H80.8514V52.2232H91.8994C93.2299 52.2232 94.3123 51.1408 94.3123 49.8104V20.7715C94.3123 19.9625 93.6564 19.3066 92.8475 19.3066C92.0385 19.3066 91.3826 19.9625 91.3826 20.7715V49.2936H80.8514V19.6656C80.8514 17.8125 79.3438 16.3049 77.4906 16.3049H46.9146V8.61738H91.3826V15.2102C91.3826 16.0191 92.0385 16.675 92.8475 16.675C93.6564 16.675 94.3123 16.0191 94.3123 15.2102V8.10059C94.3123 6.77012 93.2299 5.6877 91.8994 5.6877H46.3979C45.0674 5.6877 43.985 6.77012 43.985 8.10059V16.3047H41.227V3.36074C41.227 3.12305 41.4203 2.92969 41.658 2.92969H96.6393C96.877 2.92969 97.0703 3.12305 97.0703 3.36074V64.0297Z" fill="#FEFEFE"/>
<path d="M13.4394 62.6643C15.2959 65.335 17.6277 67.5761 20.3705 69.3253L21.8043 70.2399C22.1867 70.4837 22.625 70.6055 23.0632 70.6055C23.5017 70.6055 23.94 70.4835 24.3226 70.2395L25.7562 69.3253C27.6509 68.1169 29.357 66.6596 30.848 64.9885C32.3351 66.6575 34.0416 68.1104 35.9466 69.3253L37.3804 70.2399C37.7629 70.4837 38.2011 70.6055 38.6394 70.6055C39.0779 70.6055 39.5164 70.4835 39.899 70.2397L41.3326 69.3255C44.0752 67.5764 46.4072 65.3352 48.2636 62.6645C48.2691 62.6567 48.2744 62.6489 48.2796 62.6409C50.0052 60.0526 49.6611 56.5774 47.4615 54.3778C45.0365 51.9528 41.1181 51.9094 38.6398 54.2473C36.4894 52.2188 33.2556 51.9844 30.8533 53.5413C28.4031 51.9456 25.1998 52.2305 23.0636 54.2471C20.5853 51.9096 16.667 51.9528 14.242 54.3778C12.0423 56.5772 11.6982 60.0524 13.4238 62.6409C13.4285 62.6487 13.4339 62.6565 13.4394 62.6643ZM31.8892 56.4491C33.2162 55.1225 35.3753 55.1225 36.7021 56.4493L36.983 56.7303C37.4254 57.1729 38.0136 57.4165 38.6392 57.4165C39.265 57.4165 39.8531 57.1727 40.2953 56.7303L40.5763 56.4493C41.9033 55.1225 44.0625 55.1225 45.3894 56.4493C46.6019 57.6618 46.7941 59.5753 45.849 61.0046C44.2164 63.3499 42.1668 65.3182 39.757 66.8552L38.6394 67.5678L37.5216 66.855C35.1121 65.3182 33.0623 63.3499 31.4296 61.0044C30.4845 59.5753 30.6769 57.6614 31.8892 56.4491ZM16.313 56.4493C17.64 55.1225 19.7992 55.1223 21.1261 56.4493L21.407 56.7303C21.8494 57.1727 22.4377 57.4165 23.0632 57.4165C23.6888 57.4165 24.2771 57.1727 24.7193 56.7303L25.0004 56.4493C26.0148 55.4348 27.5129 55.1803 28.775 55.7395C27.5617 57.853 27.5982 60.5391 28.9992 62.6409C29.0005 62.6428 29.0019 62.6448 29.0033 62.6468C27.6128 64.2827 25.9947 65.6983 24.1806 66.8552L23.063 67.5678L21.9455 66.8552C19.5357 65.3184 17.4861 63.3503 15.8535 61.005C14.9084 59.5757 15.1005 57.6618 16.313 56.4493Z" fill="#F85EFB"/>
<path d="M53.5737 38.2974H8.12913C6.78284 38.2974 5.68772 39.3925 5.68772 40.7388V82.3915C5.68772 83.7378 6.78284 84.8329 8.12913 84.8329H53.5737C54.9199 84.8329 56.0151 83.7378 56.0151 82.3915V40.7388C56.0151 39.3925 54.9198 38.2974 53.5737 38.2974ZM53.0854 81.9032H8.61741V41.2271H53.0854V81.9032V81.9032Z" fill="#FEFEFE"/>
</svg>
