<svg width="34" height="34" viewBox="0 0 34 34" fill="none" xmlns="http://www.w3.org/2000/svg">
<path d="M23.9727 11.0234C23.9727 7.16862 20.8439 3.98438 17 3.98438C13.1611 3.98438 10.0273 7.16417 10.0273 11.0234C10.0273 14.8682 13.1553 17.9961 17 17.9961C20.8447 17.9961 23.9727 14.8682 23.9727 11.0234ZM12.0195 11.0234C12.0195 8.24055 14.2538 5.97656 17 5.97656C19.7462 5.97656 21.9805 8.24055 21.9805 11.0234C21.9805 13.7697 19.7462 16.0039 17 16.0039C14.2538 16.0039 12.0195 13.7697 12.0195 11.0234Z" fill="#F85EFB"/>
<path d="M27.957 11.0234C27.957 4.97967 23.0509 0 17 0C11.2881 0 6.04297 4.5633 6.04297 11.0234C6.04297 15.0512 9.98657 21.1378 12.3281 24.4823C9.72513 25.0055 6.04297 26.3564 6.04297 29.0195C6.04297 32.8279 13.1366 34 17 34C20.8638 34 27.957 32.8279 27.957 29.0195C27.957 26.3562 24.2745 25.0054 21.6719 24.4823C24.0014 21.155 27.957 15.0559 27.957 11.0234ZM8.03516 11.0234C8.03516 5.44511 12.6886 1.99219 17 1.99219C21.9432 1.99219 25.9648 6.04357 25.9648 11.0234C25.9648 15.2418 20.0705 23.5571 16.9999 27.4354C13.9291 23.5579 8.03516 15.2444 8.03516 11.0234ZM25.9648 29.0195C25.9648 30.6837 21.0866 32.0078 17 32.0078C12.9189 32.0078 8.03516 30.6827 8.03516 29.0195C8.03516 28.2267 9.81458 26.8523 13.6186 26.2781C15.0714 28.2496 16.1649 29.5729 16.2331 29.6551C16.4223 29.8835 16.7034 30.0156 17 30.0156C17.2966 30.0156 17.5777 29.8835 17.7669 29.6551C17.8351 29.5729 18.9286 28.2496 20.3814 26.2781C24.1854 26.8523 25.9648 28.2267 25.9648 29.0195Z" fill="#F85EFB"/>
</svg>
