<svg width="99" height="99" viewBox="0 0 99 99" fill="none" xmlns="http://www.w3.org/2000/svg">
<path d="M26.0703 24.7536C27.0661 24.663 27.8287 23.828 27.8287 22.828V17.0417C27.8287 16.51 27.6098 16.0018 27.2235 15.6366C26.8369 15.2713 26.3183 15.0828 25.7864 15.1112C19.6745 15.455 12.3885 18.541 12.3885 31.2907V41.3532C12.3885 43.0329 13.755 44.3993 15.4349 44.3993H25.8962C27.5759 44.3993 28.9424 43.0329 28.9424 41.3532V32.0058C28.9424 30.3261 27.5759 28.9596 25.8962 28.9596H22.3775C22.9069 25.0412 25.0733 24.8445 26.0703 24.7536ZM20.3255 32.8264H25.075V40.532H16.2557V31.2905C16.2557 22.3941 20.212 19.9096 23.9615 19.2081V21.2413C21.372 22.0294 18.392 24.3569 18.392 30.8928C18.392 31.9607 19.2578 32.8264 20.3255 32.8264Z" fill="white"/>
<path d="M76.4118 67.1813C75.416 67.2719 74.6533 68.1069 74.6533 69.1069V74.3147C74.6533 74.8464 74.8722 75.3546 75.2588 75.7198C75.6186 76.0601 76.0943 76.2483 76.5869 76.2483C76.6231 76.2483 76.6593 76.2473 76.6956 76.2452C82.2796 75.931 88.9362 73.1162 88.9362 61.4905V52.4345C88.9362 50.8161 87.6194 49.4995 86.0012 49.4995H76.5862C74.9679 49.4995 73.6512 50.8161 73.6512 52.4345V60.8472C73.6512 62.4656 74.9679 63.7822 76.5862 63.7822H79.5324C79.0401 66.9419 77.3116 67.0993 76.4118 67.1813ZM78.5205 70.6784C80.8809 69.9142 83.533 67.7434 83.533 61.8486C83.533 60.7807 82.6671 59.915 81.5994 59.915H77.5184V53.3667H85.069V61.4905C85.069 69.1672 81.7508 71.4452 78.5207 72.1274L78.5205 70.6784Z" fill="#F85EFB"/>
<path d="M55.6968 52.4345V60.8472C55.6968 62.4656 57.0136 63.7822 58.6318 63.7822H61.5782C61.0861 66.9417 59.3577 67.0993 58.4576 67.1813C57.4618 67.2719 56.6992 68.1069 56.6992 69.1069V74.3147C56.6992 74.8464 56.918 75.3546 57.3044 75.7198C57.6644 76.0601 58.1401 76.2483 58.6327 76.2483C58.6689 76.2483 58.7051 76.2473 58.7414 76.2452C64.3254 75.931 70.9818 73.1162 70.9818 61.4905V52.4345C70.9818 50.8161 69.6651 49.4995 68.0468 49.4995H58.6318C57.0134 49.4995 55.6968 50.8161 55.6968 52.4345ZM59.564 53.3667H67.1147V61.4905C67.1147 69.1672 63.7966 71.4452 60.5665 72.1274V70.6782C62.9269 69.9138 65.579 67.743 65.579 61.8484C65.579 60.7805 64.7131 59.9148 63.6454 59.9148H59.5642V53.3667H59.564Z" fill="#F85EFB"/>
<path d="M87.4628 36.8347H81.2935C80.2258 36.8347 79.3599 37.7004 79.3599 38.7683C79.3599 39.8362 80.2258 40.7019 81.2935 40.7019H87.4628C91.692 40.7019 95.1328 44.1425 95.1328 48.3719V77.118C95.1328 81.3472 91.692 84.788 87.4628 84.788H72.5742C72.0614 84.788 71.5697 84.9918 71.2069 85.3544L64.2597 92.3016V86.7214C64.2597 85.6535 63.3938 84.7878 62.3261 84.7878H57.17C52.9408 84.7878 49.5 81.3472 49.5 77.1179V48.3717C49.5 44.1425 52.9408 40.7017 57.17 40.7017H64.3887C65.4564 40.7017 66.3223 39.836 66.3223 38.7681C66.3223 37.7002 65.4564 36.8345 64.3887 36.8345H57.17C53.8303 36.8345 50.8191 38.2623 48.7103 40.5377V32.0052C48.7103 30.3255 47.3439 28.959 45.6641 28.959H42.1456C42.6748 25.041 44.8412 24.8441 45.8384 24.7534C46.8342 24.6627 47.5968 23.8278 47.5968 22.8278V17.0417C47.5968 16.5099 47.3779 16.0018 46.9915 15.6365C46.605 15.2713 46.0843 15.0822 45.5545 15.1112C39.4424 15.455 32.1566 18.5412 32.1566 31.2907V41.3531C32.1566 43.0329 33.5231 44.3993 35.203 44.3993H45.6643C45.9084 44.3993 46.1446 44.3674 46.3722 44.3129C45.8956 45.5763 45.633 46.9437 45.633 48.3719V77.118C45.633 83.4796 50.8087 88.6552 57.1702 88.6552H60.3927V96.9697C60.3927 97.7516 60.8639 98.4568 61.5863 98.7561C61.8255 98.8553 62.0769 98.9035 62.3259 98.9035C62.8292 98.9035 63.3237 98.7068 63.6935 98.3371L73.3752 88.6554H87.4628C93.8244 88.6554 99 83.48 99 77.1182V48.3717C99 42.0102 93.8244 36.8347 87.4628 36.8347ZM44.8431 40.5319H36.0238V31.2905C36.0238 22.3943 39.9801 19.9096 43.7296 19.2081V21.2414C41.1401 22.0294 38.1601 24.3569 38.1601 30.8928C38.1601 31.9607 39.0259 32.8264 40.0936 32.8264H44.8431V40.5319Z" fill="white"/>
<path d="M73.2832 40.7019C73.7917 40.7019 74.2906 40.495 74.6501 40.1354C75.0097 39.7757 75.2168 39.2768 75.2168 38.7683C75.2168 38.2598 75.0099 37.7609 74.6501 37.4013C74.2906 37.0416 73.7917 36.8347 73.2832 36.8347C72.7747 36.8347 72.2758 37.0416 71.9162 37.4013C71.5565 37.7609 71.3496 38.2598 71.3496 38.7683C71.3496 39.2768 71.5563 39.7757 71.9162 40.1354C72.276 40.495 72.7747 40.7019 73.2832 40.7019Z" fill="white"/>
<path d="M59.168 30.0034C58.6594 30.0034 58.1606 30.2084 57.8009 30.57C57.4413 30.9277 57.2344 31.4265 57.2344 31.937C57.2344 32.4455 57.4411 32.9444 57.8009 33.3041C58.1608 33.6637 58.6594 33.8706 59.168 33.8706C59.6784 33.8706 60.1754 33.6637 60.5348 33.3041C60.8945 32.9444 61.1016 32.4455 61.1016 31.937C61.1016 31.4265 60.8947 30.9277 60.5348 30.57C60.1754 30.2084 59.6784 30.0034 59.168 30.0034Z" fill="white"/>
<path d="M38.4785 55.5422H29.7713C28.7036 55.5422 27.8378 56.4079 27.8378 57.4758V64.657L19.2893 56.1086C18.9266 55.746 18.4349 55.5422 17.9221 55.5422H13.0376C7.98091 55.5422 3.86719 51.4283 3.86719 46.3718V13.1341C3.86719 8.07754 7.98091 3.96362 13.0376 3.96362H48.0639C53.1207 3.96362 57.2344 8.07754 57.2344 13.1341V24.5885C57.2344 25.6564 58.1002 26.5221 59.168 26.5221C60.2357 26.5221 61.1016 25.6564 61.1016 24.5885V13.1341C61.1016 5.94498 55.253 0.0964355 48.0639 0.0964355H13.0376C5.84854 0.0964355 0 5.94498 0 13.1341V46.3718C0 53.5609 5.84854 59.4094 13.0376 59.4094H17.121L28.4041 70.6923C28.774 71.0624 29.2686 71.2589 29.7717 71.2589C30.0208 71.2589 30.2722 71.2105 30.5113 71.1115C31.2337 70.8122 31.7049 70.1072 31.7049 69.3251V59.4094H38.4785C39.5462 59.4094 40.4121 58.5438 40.4121 57.4758C40.4121 56.4079 39.5462 55.5422 38.4785 55.5422Z" fill="white"/>
</svg>
