<svg width="70" height="100" viewBox="0 0 70 100" fill="none" xmlns="http://www.w3.org/2000/svg">
<g clip-path="url(#clip0)">
<path d="M66.5121 48.4608L33.0339 0.634854C32.748 0.227246 32.3603 -0.00101515 31.9565 3.87124e-06H4.56518C3.72475 -0.00223797 3.04225 0.9695 3.04068 2.17011C3.03997 2.74891 3.20089 3.30428 3.48779 3.71311L35.8917 50.0001L3.48779 96.2869C2.89274 97.1347 2.8916 98.5112 3.48508 99.3613C3.77126 99.7711 4.16002 100.001 4.56518 100H31.9565C32.3603 100.001 32.748 99.7727 33.0339 99.3651L66.5121 51.539C67.1072 50.6912 67.1083 49.3147 66.5149 48.4646C66.5139 48.4634 66.513 48.4622 66.5121 48.4608Z" fill="#F85EFB"/>
</g>
<defs>
<clipPath id="clip0">
<rect width="70" height="100" fill="white"/>
</clipPath>
</defs>
</svg>
