<svg width="230" height="230" viewBox="0 0 230 230" fill="none" xmlns="http://www.w3.org/2000/svg">
<path d="M195.908 188.198C197.803 187.309 198.924 184.834 198.924 181.779C198.924 176.636 195.444 174.858 190.765 174.858C184.23 174.858 182.296 178.841 182.296 181.586C182.296 183.211 182.644 183.752 184.887 183.752C186.743 183.752 187.284 182.978 187.284 181.819C187.284 180.272 188.212 179.228 190.726 179.228C192.814 179.228 194.129 180.079 194.129 182.631C194.129 185.956 192.505 186.42 190.571 186.42C189.45 186.42 189.063 187.425 189.063 188.392C189.063 189.397 189.45 190.364 190.571 190.364C193.046 190.364 194.825 191.176 194.825 194.038V194.773C194.825 197.711 193.587 198.949 190.687 198.949C188.212 198.949 186.666 197.866 186.666 196.126C186.666 194.888 186.124 194.347 184.075 194.347C182.335 194.347 181.678 194.772 181.678 196.319C181.678 199.451 184.23 203.357 190.572 203.357C195.676 203.357 199.852 200.998 199.852 194.772V194.037C199.852 190.828 198.189 189.088 195.908 188.198Z" fill="#FEFEFF"/>
<path d="M46.8603 198.832H36.1104V197.904C36.1104 193.883 48.3683 191.176 48.3683 182.824C48.3683 177.912 44.1919 174.974 39.7064 174.974C35.4142 174.974 31.3928 177.681 31.3928 182.089C31.3928 184.177 32.3595 184.796 33.6743 184.796C35.3373 184.796 36.3041 183.868 36.3041 182.94C36.3041 180.542 37.8507 179.537 39.7455 179.537C42.2975 179.537 43.3415 181.393 43.3415 182.979C43.3415 188.431 30.8901 191.718 30.8901 197.905V201.656C30.8901 202.622 32.2045 203.241 33.0939 203.241H46.8603C47.7111 203.241 48.4455 202.158 48.4455 200.998C48.4455 199.838 47.7111 198.832 46.8603 198.832Z" fill="#FEFEFF"/>
<path d="M116.003 163.076C115.578 163.076 115.23 163.23 114.959 163.463L110.396 166.943C109.777 167.329 109.429 168.064 109.429 168.76C109.429 169.766 110.086 170.771 111.054 170.771C111.324 170.771 111.672 170.694 111.982 170.423L113.219 169.186V189.835C113.219 190.879 114.457 191.42 115.733 191.42C116.97 191.42 118.246 190.879 118.246 189.835V164.7C118.246 163.695 117.047 163.076 116.003 163.076Z" fill="#FEFEFF"/>
<path d="M223.865 148.553H181.156C179.291 148.553 177.78 150.064 177.78 151.928C177.78 153.792 179.291 155.303 181.156 155.303H223.25V222.969H155.584V155.303H165.45C167.315 155.303 168.826 153.792 168.826 151.928C168.826 150.064 167.315 148.553 165.45 148.553H155.584V133.263C155.584 129.881 152.832 127.128 149.449 127.128H141.315L137.983 113.488C137.463 111.356 135.567 109.867 133.372 109.867H124.054V81.3611L125.471 80.3167C130.76 76.4202 135.295 71.693 138.957 66.3923C138.955 66.394 138.954 66.3958 138.953 66.3981C139.016 66.4673 139.073 66.5387 139.137 66.6065C141.206 68.7767 144.138 70.0215 147.183 70.0215C148.589 70.0215 149.929 69.7533 151.164 69.225C154.437 67.827 156.516 64.9044 157.017 60.9953C157.254 59.1464 155.948 57.455 154.099 57.2174C152.25 56.9838 150.559 58.2865 150.322 60.1355C150.035 62.3664 148.929 62.8394 148.512 63.0173C148.124 63.183 147.665 63.2706 147.183 63.2706C146.011 63.2706 144.801 62.7644 144.024 61.949C142.866 60.7339 143.149 59.3961 143.59 58.4873C145.549 54.4502 149.715 52.758 154.128 50.9661C158.117 49.3457 162.639 47.5093 166.063 43.6919C169.948 39.3605 171.836 33.1298 171.836 24.6441V16.5083C171.836 15.0784 171.279 13.7353 170.265 12.7227C169.269 11.73 167.899 11.1626 166.516 11.1626C166.503 11.1626 166.49 11.1626 166.477 11.1626C162.287 11.1729 158.367 13.2389 155.989 16.6875L154.476 18.882C153.525 20.2606 151.958 21.084 150.284 21.084H149.467V17.4701C151.78 16.922 153.508 14.8448 153.508 12.367V5.52984C153.508 2.63553 151.153 0.280273 148.258 0.280273H81.8122C78.9179 0.280273 76.5626 2.63508 76.5626 5.52984V12.367C76.5626 14.8448 78.2903 16.9225 80.6033 17.4701V21.084H79.7166C78.0423 21.084 76.475 20.2611 75.5245 18.882L74.0115 16.688C71.6338 13.2389 67.713 11.1734 63.5406 11.1626C62.1157 11.1684 60.7407 11.721 59.734 12.7245C58.7219 13.7348 58.1644 15.0784 58.1644 16.5083V24.645C58.1644 33.1307 60.0529 39.3614 63.9373 43.6928C67.3613 47.5102 71.8826 49.3466 75.8739 50.9679C80.2848 52.7589 84.4509 54.4507 86.4104 58.4887C86.8511 59.3966 87.1336 60.7343 85.9751 61.9504C85.1984 62.7653 83.9882 63.2715 82.8171 63.2715C82.3351 63.2715 81.8755 63.1839 81.4874 63.0182C81.071 62.8403 79.9645 62.3673 79.6784 60.1364C79.4412 58.2879 77.7535 56.9838 75.9009 57.2183C74.0519 57.4559 72.7456 59.1473 72.9828 60.9962C73.4846 64.9053 75.5631 67.8279 78.8352 69.2259C80.0719 69.7542 81.4115 70.0224 82.8171 70.0224C85.8623 70.0224 88.7944 68.7776 90.8621 66.6079C90.9407 66.5252 91.0113 66.4385 91.0863 66.3541C94.7524 71.6706 99.2962 76.4116 104.598 80.318L106.016 81.3625V109.868H96.6975C94.5031 109.868 92.6064 111.357 92.0867 113.489L88.7548 127.129H80.5508C77.1681 127.129 74.4162 129.881 74.4162 133.263V148.553H6.13453C2.75191 148.553 0 151.305 0 154.687V223.585C0 226.968 2.75191 229.72 6.13453 229.72H223.865C227.248 229.72 230 226.968 230 223.585V154.687C230 151.305 227.248 148.553 223.865 148.553ZM74.4167 222.969H74.4162H6.75086V155.303H74.4167V222.969ZM149.466 32.8361V27.834H150.283C154.177 27.834 157.822 25.9199 160.032 22.7138L161.546 20.5189C162.393 19.2894 163.657 18.4328 165.084 18.0851V24.6446C165.084 31.3918 163.76 36.1481 161.037 39.1849C158.654 41.8415 155.221 43.2359 151.585 44.7125C150.378 45.2026 149.134 45.7107 147.896 46.2794C148.926 41.9085 149.466 37.4001 149.466 32.8361ZM78.4129 44.712C74.7787 43.2359 71.3463 41.8415 68.9636 39.1849C66.24 36.1481 64.9157 31.3918 64.9157 24.6446V18.0833C66.3384 18.4296 67.6052 19.2876 68.4542 20.5194L69.9672 22.7138C72.1778 25.9199 75.8227 27.834 79.7166 27.834H80.6033V32.8361C80.6038 37.4122 81.1464 41.9332 82.1823 46.3149C80.9178 45.7309 79.6456 45.2129 78.4129 44.712ZM87.3542 32.8361V17.6152H93.3975C95.2618 17.6152 96.7729 16.104 96.7729 14.2397C96.7729 12.3755 95.2618 10.8643 93.3975 10.8643H83.3135V7.03023H146.756V10.8648H109.375C107.511 10.8648 106 12.3759 106 14.2402C106 16.1045 107.511 17.6156 109.375 17.6156H142.715V32.8361C142.715 49.3619 134.772 65.0801 121.467 74.882L118.295 77.2193C116.345 78.6555 113.725 78.6559 111.775 77.2193L108.602 74.882C95.2977 65.0801 87.3542 49.3624 87.3542 32.8361ZM117.303 84.8318V109.867H112.767V84.8322C113.517 84.9746 114.275 85.0546 115.035 85.0546C115.795 85.0546 116.553 84.9746 117.303 84.8318ZM98.2715 116.618H131.799L134.366 127.129H95.7038L98.2715 116.618ZM148.833 222.969H81.1671V133.88H148.833V222.969Z" fill="#FEFEFF"/>
<path d="M39.8547 160.405H39.4809C23.6383 160.405 10.7498 173.294 10.7498 189.137C10.7498 204.979 23.6383 217.868 39.4809 217.868H39.8547C55.6973 217.868 68.5858 204.979 68.5858 189.137C68.5858 173.294 55.6973 160.405 39.8547 160.405ZM39.8547 211.118H39.4809C27.3606 211.118 17.5002 201.257 17.5002 189.137C17.5002 177.016 27.3606 167.156 39.4809 167.156H39.8547C51.9751 167.156 61.8354 177.016 61.8354 189.137C61.8354 201.257 51.9751 211.118 39.8547 211.118Z" fill="#FEFEFF"/>
<path d="M115.596 149.693H115.222C99.3798 149.693 86.4908 162.581 86.4908 178.424C86.4908 194.266 99.3798 207.155 115.222 207.155H115.596C131.438 207.155 144.327 194.266 144.327 178.424C144.327 162.582 131.438 149.693 115.596 149.693ZM115.596 200.405H115.222C103.102 200.405 93.2412 190.545 93.2412 178.424C93.2412 166.304 103.102 156.443 115.222 156.443H115.596C127.716 156.443 137.576 166.304 137.576 178.424C137.576 190.545 127.716 200.405 115.596 200.405Z" fill="#FEFEFF"/>
<path d="M190.519 160.405H190.145C174.303 160.405 161.414 173.294 161.414 189.137C161.414 204.979 174.303 217.868 190.145 217.868H190.519C206.362 217.868 219.25 204.979 219.25 189.137C219.25 173.294 206.362 160.405 190.519 160.405ZM190.52 211.118H190.146C178.025 211.118 168.165 201.257 168.165 189.137C168.165 177.016 178.025 167.156 190.146 167.156H190.52C202.64 167.156 212.5 177.016 212.5 189.137C212.5 201.257 202.64 211.118 190.52 211.118Z" fill="#FEFEFF"/>
</svg>
